# xmcd
#
# Track frame offsets:
# 150
# 18682
# 33464
# 52404
# 68217
# 87214
# 107284
# 121579
# 140472
# 155535
# 173317
# 190987
# 204937
# 218595
# 235740
# 248011
# 266469
#
# Disc length: 3749 seconds
#
#
# Revision: 0
# Processed by: cddbd v1.5.1PL0 Copyright (c) Steve Scherf et al.
# Submitted via: FreeRIP 2.943 
#
DISCID=dd0ea311
DTITLE=Various Artist - Alamo Country Dancers 1
DYEAR=1900
DGENRE=Country
TTITLE0=Shania Twain - Any man of mine
TTITLE1=The Mavericks - Down on the corner
TTITLE2=Dire Straits - Walk of life
TTITLE3=Riverside - Roll on big mama
TTITLE4=Brooks and Dunn - Neon moon
TTITLE5=John Michael Montgomery - Life's a dance
TTITLE6=Cartoons - Doo dah
TTITLE7=Dire Straits - The bug
TTITLE8=Grant and Forsyth - Somewhere between
TTITLE9=The Mavericks - Pizziricco
TTITLE10=Clay Walker - Live Laugh Love
TTITLE11=Ronnie McDowell - Smokey Places
TTITLE12=Eddie Raven - Jambalaya
TTITLE13=John Fogerty - Southern Streamlinin'
TTITLE14=Sara Evans - Wait a minute
TTITLE15=Kenny Rogers and Dolly Parton - Islands in the stream
TTITLE16=Blake Shelton - Every Cotton Picking Morning
EXTD=
EXTT0=
EXTT1=
EXTT2=
EXTT3=
EXTT4=
EXTT5=
EXTT6=
EXTT7=
EXTT8=
EXTT9=
EXTT10=
EXTT11=
EXTT12=
EXTT13=
EXTT14=
EXTT15=
EXTT16=
PLAYORDER=
